<?xml version="1.0" encoding="UTF-8"?>
<svg id="Layer_1" xmlns="http://www.w3.org/2000/svg" width="400" height="400" version="1.1" xmlns:xlink="http://www.w3.org/1999/xlink" viewBox="0 0 400 400">
  <!-- Generator: Adobe Illustrator 29.7.1, SVG Export Plug-In . SVG Version: 2.1.1 Build 8)  -->
  <defs>
    <style>
      .st0 {
        fill: url(#radial-gradient10);
      }

      .st1 {
        fill: url(#radial-gradient11);
      }

      .st2 {
        fill: url(#radial-gradient);
      }

      .st3 {
        fill: url(#radial-gradient5);
      }

      .st4 {
        fill: url(#radial-gradient1);
      }

      .st5 {
        fill: url(#radial-gradient7);
      }

      .st6 {
        fill: url(#radial-gradient14);
      }

      .st7 {
        fill: url(#radial-gradient13);
      }

      .st8 {
        fill: url(#radial-gradient8);
      }

      .st9 {
        fill: url(#radial-gradient12);
      }

      .st10 {
        fill: url(#radial-gradient6);
      }

      .st11 {
        fill: url(#radial-gradient2);
      }

      .st12 {
        fill: url(#radial-gradient15);
      }

      .st13 {
        fill: url(#radial-gradient4);
      }

      .st14 {
        fill: url(#radial-gradient3);
      }

      .st15 {
        fill: url(#radial-gradient9);
      }

      .st16 {
        fill: #343434;
      }

      .st17 {
        fill: #e6e6e6;
      }
    </style>
    <radialGradient id="radial-gradient" cx="-22.004" cy="219.278" fx="-22.004" fy="219.278" r="388.542" gradientUnits="userSpaceOnUse">
      <stop offset=".482" stop-color="#81a095"/>
      <stop offset="1" stop-color="#149263"/>
    </radialGradient>
    <radialGradient id="radial-gradient1" r="388.542" xlink:href="#radial-gradient"/>
    <radialGradient id="radial-gradient2" r="388.542" xlink:href="#radial-gradient"/>
    <radialGradient id="radial-gradient3" cy="219.278" fy="219.278" r="388.542" xlink:href="#radial-gradient"/>
    <radialGradient id="radial-gradient4" cx="-22.004" cy="219.278" fx="-22.004" fy="219.278" r="388.542" xlink:href="#radial-gradient"/>
    <radialGradient id="radial-gradient5" cx="-22.004" cy="219.278" fx="-22.004" fy="219.278" r="388.542" xlink:href="#radial-gradient"/>
    <radialGradient id="radial-gradient6" cx="-22.004" fx="-22.004" r="388.542" xlink:href="#radial-gradient"/>
    <radialGradient id="radial-gradient7" cx="-22.004" cy="219.278" fx="-22.004" fy="219.278" r="388.558" xlink:href="#radial-gradient"/>
    <radialGradient id="radial-gradient8" cx="-22.004" cy="219.278" fx="-22.004" fy="219.278" r="388.542" xlink:href="#radial-gradient"/>
    <radialGradient id="radial-gradient9" cx="-22.004" cy="219.278" fx="-22.004" fy="219.278" r="388.542" xlink:href="#radial-gradient"/>
    <radialGradient id="radial-gradient10" r="388.542" xlink:href="#radial-gradient"/>
    <radialGradient id="radial-gradient11" cx="-22.004" cy="219.278" fx="-22.004" fy="219.278" r="388.542" xlink:href="#radial-gradient"/>
    <radialGradient id="radial-gradient12" cx="-22.004" cy="219.278" fx="-22.004" fy="219.278" r="388.542" xlink:href="#radial-gradient"/>
    <radialGradient id="radial-gradient13" cx="-22.004" fx="-22.004" r="388.542" xlink:href="#radial-gradient"/>
    <radialGradient id="radial-gradient14" cx="-22.004" cy="219.278" fx="-22.004" fy="219.278" r="388.542" xlink:href="#radial-gradient"/>
    <radialGradient id="radial-gradient15" cx="-22.004" fx="-22.004" r="388.542" xlink:href="#radial-gradient"/>
  </defs>
  <g>
    <g>
      <rect class="st16" x="9.04" y="164.661" width="28.761" height="39.546"/>
      <rect class="st16" x="9.04" y="197.032" width="28.761" height="39.57"/>
      <path class="st16" d="M378.28,391.624H22.432c-7.385,0-13.392-6.007-13.392-13.392v-148.803h28.761v14.644h86.53v-82.126l29.569-35.648,5.695,3.372c6.44,3.809,15.201,3.238,21.087-1.422l2.116-1.675h178.001V40.044H37.801v95.509l-28.761,4.967V22.384c0-7.385,6.007-13.392,13.392-13.392h355.848c7.386,0,13.393,6.007,13.393,13.392v355.848c0,7.385-6.007,13.392-13.393,13.392ZM370.922,376.11h5.237v-6.914c-.553,3.043-2.54,5.591-5.237,6.914ZM253.179,376.11h10.967c-3.192-1.566-5.391-4.847-5.391-8.633v-98.337c0-5.044,3.906-9.193,8.85-9.581-4.944-.388-8.85-4.536-8.85-9.58v-98.337c0-4.937,3.742-9.017,8.54-9.551h-17.264c4.798.534,8.54,4.615,8.54,9.551v98.337c0,5.044-3.906,9.193-8.85,9.58,4.944.389,8.85,4.538,8.85,9.581v98.337c0,3.786-2.199,7.068-5.391,8.633ZM134.455,376.11h11.946c-3.189-1.566-5.39-4.847-5.39-8.633v-60.38c-.408-.59-.798-1.193-1.167-1.807v62.187c0,3.786-2.201,7.068-5.39,8.633ZM24.554,376.11h3.122c-1.203-.591-2.265-1.425-3.122-2.439v2.439ZM274.269,361.573h86.53v-86.53h-86.53v86.53ZM156.526,361.573h86.53v-86.53h-59.884l-2.151-1.78c-6.044-4.997-14.646-5.668-21.4-1.668l-3.095,1.832v.193l-1.788,2.155c-2.797,3.368-4.274,7.479-4.272,11.888,0,4.406,1.477,8.516,4.272,11.883l1.788,2.155v59.871ZM37.801,361.573h86.53v-86.53H49.485l-11.685-1.997v88.527ZM367.462,259.558c4.368.343,7.929,3.624,8.696,7.862v-15.723c-.768,4.238-4.328,7.518-8.696,7.861ZM274.269,244.074h86.53v-86.53h-86.53v86.53ZM156.526,244.074h86.53v-86.53h-86.53v86.53ZM139.845,233.712l1.167,1.405v-22.571h-1.167v21.165ZM139.845,188.692h1.167v-22.553l-1.167,1.406v21.146ZM367.462,142.058c4.368.343,7.929,3.624,8.696,7.862v-15.723c-.768,4.238-4.328,7.518-8.696,7.861ZM31.897,24.53h334.806c4.712,0,8.643,3.409,9.456,7.891v-7.915H24.554v3.44c1.764-2.088,4.401-3.416,7.343-3.416Z"/>
      <polygon class="st16" points="124.331 173.182 124.331 157.544 37.801 157.544 37.801 171.834 9.04 171.834 9.04 133.241 48.302 126.575 162.991 126.575 124.331 173.182"/>
    </g>
    <g>
      <rect class="st17" x="16.797" y="172.418" width="13.246" height="24.031"/>
      <rect class="st17" x="16.797" y="204.79" width="13.246" height="24.055"/>
      <path class="st17" d="M16.797,22.384v108.926l13.246-2.288V34.14c0-1.024.83-1.854,1.854-1.854h334.806c1.024,0,1.854.83,1.854,1.854v98.337c0,1.024-.83,1.854-1.854,1.854h-181.205c-4.784,3.788-10.585,5.688-16.388,5.688-4.666,0-9.33-1.225-13.466-3.673l-23.556,28.4v31.703h16.68v-44.809c0-1.024.83-1.854,1.854-1.854h98.337c1.024,0,1.854.83,1.854,1.854v98.337c0,1.024-.83,1.854-1.854,1.854h-98.337c-1.024,0-1.854-.83-1.854-1.854v-45.188h-16.68v31.723l23.58,28.407c9.44-5.589,21.635-4.799,30.297,2.366h62.995c1.024,0,1.854.83,1.854,1.854v98.337c0,1.024-.83,1.854-1.854,1.854h-98.337c-1.024,0-1.854-.83-1.854-1.854v-62.976c-3.922-4.727-6.06-10.617-6.06-16.837,0-6.222,2.137-12.115,6.06-16.844v-1.154l-16.68-20.095v.406c0,1.024-.83,1.854-1.854,1.854H31.897c-1.024,0-1.854-.83-1.854-1.854v-12.791h-13.246v24.4l33.345,5.7h80.092c1.024,0,1.854.83,1.854,1.854v98.337c0,1.024-.83,1.854-1.854,1.854H31.897c-1.024,0-1.854-.83-1.854-1.854v-95.165l-13.246-2.264v108.185c0,3.112,2.523,5.635,5.635,5.635h355.849c3.112,0,5.635-2.523,5.635-5.635V22.384c0-3.112-2.523-5.635-5.635-5.635H22.432c-3.112,0-5.635,2.523-5.635,5.635ZM368.557,367.477c0,1.024-.83,1.854-1.854,1.854h-98.337c-1.024,0-1.854-.83-1.854-1.854v-98.337c0-1.024.83-1.854,1.854-1.854h98.337c1.024,0,1.854.83,1.854,1.854v98.337ZM368.557,249.977c0,1.024-.83,1.854-1.854,1.854h-98.337c-1.024,0-1.854-.83-1.854-1.854v-98.337c0-1.024.83-1.854,1.854-1.854h98.337c1.024,0,1.854.83,1.854,1.854v98.337Z"/>
      <path class="st17" d="M30.043,151.64c0-1.024.83-1.854,1.854-1.854h98.337c1.024,0,1.854.83,1.854,1.854v.041l14.39-17.35H48.302l-31.504,5.442v24.303h13.246v-12.437Z"/>
    </g>
  </g>
  <g>
    <path class="st2" d="M30.043,237.186v12.791c0,1.024.83,1.854,1.854,1.854h98.337c1.024,0,1.854-.83,1.854-1.854v-.406l-10.28-12.385H30.043Z"/>
    <path class="st4" d="M123.766,172.418H30.043v24.031h102.045v-31.703l-5.112,6.163c-.792.955-1.969,1.508-3.21,1.508Z"/>
    <path class="st11" d="M130.234,149.786H31.897c-1.024,0-1.854.83-1.854,1.854v12.437h91.763l10.282-12.396v-.041c0-1.024-.83-1.854-1.854-1.854Z"/>
    <path class="st14" d="M30.043,228.845h93.722c1.24,0,2.416.552,3.209,1.507l5.114,6.16v-31.723H30.043v24.055Z"/>
    <path class="st13" d="M100.164,77.566h0c0-4.832-1.883-9.374-5.3-12.789-3.416-3.415-7.958-5.296-12.788-5.296h-.003c-4.831,0-9.373,1.883-12.789,5.3-3.416,3.417-5.297,7.959-5.296,12.791,0,4.831,1.883,9.373,5.3,12.789,3.416,3.415,7.958,5.295,12.788,5.295h.003c4.831,0,9.373-1.883,12.789-5.3,3.416-3.417,5.296-7.959,5.295-12.79Z"/>
    <path class="st3" d="M181.902,126.391c7.051-7.054,7.049-18.529-.004-25.579-3.416-3.415-7.957-5.296-12.787-5.296h-.003c-4.832,0-9.373,1.883-12.789,5.3-3.416,3.417-5.297,7.959-5.296,12.791,0,4.831,1.883,9.373,5.3,12.789,7.053,7.051,18.529,7.049,25.579-.004Z"/>
    <path class="st10" d="M366.703,32.287H31.897c-1.024,0-1.854.83-1.854,1.854v94.881l47.867-8.269v-17.085c-5.475-.862-10.524-3.415-14.519-7.408-4.993-4.991-7.743-11.627-7.744-18.687s2.747-13.697,7.738-18.689c4.991-4.993,11.628-7.743,18.687-7.744h.004c7.058,0,13.693,2.748,18.685,7.738,4.992,4.991,7.742,11.628,7.743,18.687,0,0,0,0,0,0,.001,7.059-2.747,13.696-7.738,18.689-3.994,3.994-9.041,6.548-14.515,7.412v20.598c0,2.03-1.461,3.764-3.46,4.109l-34.489,5.958h98.176l2.754-3.32c-4.232-4.819-6.549-10.932-6.55-17.404-.001-7.059,2.747-13.697,7.738-18.689s11.627-7.743,18.687-7.744h.004c7.058,0,13.693,2.748,18.685,7.738,10.306,10.303,10.309,27.069.006,37.376-.735.735-1.507,1.412-2.303,2.043h181.205c1.024,0,1.854-.83,1.854-1.854V34.14c0-1.024-.83-1.854-1.854-1.854Z"/>
    <path class="st5" d="M248.959,149.786h-98.337c-1.024,0-1.854.83-1.854,1.854v44.809h30.306c.864-5.471,3.415-10.516,7.407-14.508,4.991-4.992,11.627-7.742,18.687-7.743h.005c7.058,0,13.692,2.748,18.683,7.738,4.992,4.991,7.743,11.628,7.744,18.687,0,7.059-2.747,13.696-7.738,18.689-4.99,4.992-11.627,7.743-18.686,7.744h0c-13.157,0-24.097-9.663-26.101-22.265h-30.305v45.188c0,1.024.83,1.854,1.854,1.854h98.337c1.024,0,1.854-.83,1.854-1.854v-98.337c0-1.024-.83-1.854-1.854-1.854Z"/>
    <path class="st8" d="M205.174,218.714c4.831,0,9.373-1.883,12.789-5.3,3.416-3.417,5.296-7.959,5.295-12.791,0-4.831-1.883-9.373-5.299-12.789-3.417-3.415-7.957-5.295-12.787-5.295h-.004c-4.832,0-9.374,1.883-12.79,5.3-3.406,3.406-5.284,7.932-5.294,12.748,0,.011.003.022.003.033,0,.013-.004.026-.004.039.018,9.958,8.126,18.055,18.089,18.055Z"/>
    <rect class="st15" x="266.512" y="149.786" width="102.044" height="102.044" rx="1.854" ry="1.854"/>
    <path class="st0" d="M130.234,267.286H50.143l32.641,5.58c2.003.342,3.468,2.079,3.468,4.111v20.641c5.486.858,10.545,3.413,14.547,7.414,4.993,4.99,7.743,11.627,7.744,18.687s-2.747,13.696-7.738,18.688c-4.991,4.992-11.627,7.743-18.687,7.744h-.004c-7.058,0-13.693-2.748-18.684-7.738-4.992-4.99-7.742-11.627-7.744-18.686-.001-7.059,2.747-13.696,7.738-18.689,3.987-3.988,9.024-6.54,14.488-7.408v-17.134l-47.867-8.182v95.165c0,1.024.83,1.854,1.854,1.854h98.337c1.024,0,1.854-.83,1.854-1.854v-98.337c0-1.024-.83-1.854-1.854-1.854Z"/>
    <path class="st1" d="M64.026,323.724c0,4.831,1.883,9.374,5.3,12.789,3.416,3.415,7.958,5.295,12.788,5.295h.003c4.831,0,9.373-1.883,12.789-5.299s5.297-7.959,5.296-12.79c0-4.832-1.883-9.374-5.3-12.79-3.416-3.415-7.958-5.295-12.788-5.295h-.003c-4.831,0-9.373,1.883-12.789,5.3-3.416,3.417-5.296,7.959-5.295,12.79Z"/>
    <path class="st9" d="M169.139,305.748c4.832,0,9.373-1.883,12.789-5.3,7.052-7.053,7.05-18.528-.004-25.579-3.526-3.525-8.157-5.287-12.787-5.287s-9.266,1.764-12.792,5.292c-3.416,3.417-5.296,7.959-5.296,12.79s1.883,9.373,5.3,12.788c3.416,3.416,7.958,5.296,12.788,5.296h.002Z"/>
    <path class="st7" d="M248.959,267.286h-62.995c.638.528,1.259,1.086,1.856,1.683,10.306,10.303,10.309,27.07.006,37.376-4.991,4.992-11.627,7.743-18.687,7.744h-.004c-7.058,0-13.693-2.748-18.685-7.738-.594-.593-1.153-1.212-1.683-1.85v62.976c0,1.024.83,1.854,1.854,1.854h98.337c1.024,0,1.854-.83,1.854-1.854v-98.337c0-1.024-.83-1.854-1.854-1.854Z"/>
    <path class="st6" d="M148.768,270.821c.159-.191.324-.378.488-.566l-.488-.588v1.154Z"/>
    <rect class="st12" x="266.512" y="267.286" width="102.044" height="102.045" rx="1.854" ry="1.854"/>
  </g>
  <g>
    <path class="st16" d="M86.252,297.618v-20.641c0-2.032-1.465-3.769-3.468-4.111l-32.641-5.58-33.345-5.7v8.462l13.246,2.264,47.867,8.182v17.134c-5.463.868-10.501,3.42-14.488,7.408-4.991,4.993-7.739,11.63-7.738,18.689.001,7.058,2.751,13.695,7.744,18.686,4.991,4.99,11.627,7.738,18.684,7.738h.004c7.059,0,13.696-2.751,18.687-7.744,4.991-4.992,7.739-11.629,7.738-18.688s-2.751-13.696-7.744-18.687c-4.002-4.001-9.061-6.556-14.547-7.414ZM94.905,336.51c-3.416,3.417-7.958,5.298-12.789,5.299h-.003c-4.83,0-9.372-1.881-12.788-5.295-3.417-3.416-5.299-7.958-5.3-12.789s1.88-9.374,5.295-12.79c3.416-3.417,7.958-5.299,12.789-5.3h.003c4.83,0,9.372,1.881,12.788,5.295,3.417,3.417,5.299,7.958,5.3,12.79,0,4.831-1.88,9.374-5.296,12.79Z"/>
    <path class="st16" d="M223.856,181.935c-4.991-4.99-11.625-7.738-18.683-7.738h-.005c-7.059,0-13.696,2.751-18.687,7.743-3.991,3.992-6.543,9.038-7.407,14.508H16.797v8.34h162.276c2.004,12.602,12.944,22.266,26.101,22.265h0c7.058,0,13.695-2.751,18.686-7.744,4.991-4.993,7.739-11.63,7.738-18.689,0-7.059-2.751-13.696-7.744-18.687ZM217.963,213.414c-3.417,3.417-7.958,5.299-12.789,5.3-9.963,0-18.071-8.097-18.089-18.055,0-.013.004-.026.004-.039,0-.011-.003-.022-.003-.033.01-4.816,1.888-9.342,5.294-12.748,3.416-3.417,7.958-5.299,12.79-5.3h.004c4.829,0,9.37,1.881,12.787,5.295,3.417,3.416,5.298,7.958,5.299,12.789,0,4.832-1.88,9.374-5.295,12.791Z"/>
    <path class="st16" d="M185.965,267.286c-8.662-7.165-20.857-7.955-30.297-2.366l-23.58-28.407-5.114-6.16c-.792-.955-1.968-1.507-3.209-1.507H16.797v8.341h105.01l10.28,12.385,16.68,20.095.488.588c-.165.187-.33.375-.488.566-3.924,4.729-6.061,10.621-6.06,16.844,0,6.22,2.138,12.11,6.06,16.837.529.638,1.089,1.256,1.683,1.85,4.992,4.99,11.627,7.738,18.685,7.738h.004c7.059,0,13.696-2.751,18.687-7.744,10.303-10.306,10.3-27.073-.006-37.376-.597-.597-1.218-1.156-1.856-1.683ZM181.928,300.448c-3.416,3.417-7.957,5.299-12.789,5.3h-.002c-4.831,0-9.372-1.881-12.788-5.296-3.417-3.416-5.299-7.957-5.3-12.788s1.88-9.374,5.296-12.79c3.526-3.528,8.159-5.292,12.792-5.292s9.261,1.762,12.787,5.287c7.054,7.051,7.055,18.526.004,25.579Z"/>
    <path class="st16" d="M82.791,128.373c2-.345,3.46-2.08,3.46-4.109v-20.598c5.474-.864,10.522-3.418,14.515-7.412,4.991-4.993,7.739-11.63,7.738-18.689,0,0,0,0,0,0-.001-7.059-2.751-13.696-7.743-18.687-4.992-4.99-11.627-7.738-18.685-7.738h-.004c-7.059,0-13.696,2.751-18.687,7.744-4.991,4.992-7.739,11.629-7.738,18.689s2.751,13.696,7.744,18.687c3.995,3.994,9.044,6.547,14.519,7.408v17.085l-47.867,8.269-13.246,2.288v8.464l31.504-5.442,34.489-5.958ZM69.288,90.36c-3.417-3.416-5.299-7.958-5.3-12.789,0-4.832,1.88-9.374,5.296-12.791,3.416-3.417,7.958-5.299,12.789-5.3h.003c4.83,0,9.372,1.881,12.788,5.296,3.417,3.416,5.299,7.958,5.3,12.789h0c0,4.832-1.88,9.374-5.295,12.791-3.416,3.417-7.958,5.299-12.789,5.3h-.003c-4.83,0-9.372-1.881-12.788-5.295Z"/>
    <path class="st16" d="M123.766,172.418c1.241,0,2.418-.553,3.21-1.508l5.112-6.163,23.556-28.4c4.136,2.448,8.801,3.673,13.466,3.673,5.803,0,11.603-1.901,16.388-5.688.796-.631,1.568-1.307,2.303-2.043,10.303-10.307,10.3-27.073-.006-37.376-4.991-4.99-11.627-7.738-18.685-7.738h-.004c-7.059,0-13.696,2.751-18.687,7.744s-7.739,11.629-7.738,18.689c0,6.472,2.318,12.585,6.55,17.404l-2.754,3.32-14.39,17.35-10.282,12.396H16.797v8.341h106.968ZM156.319,100.816c3.416-3.417,7.957-5.3,12.789-5.3h.003c4.83,0,9.372,1.881,12.787,5.296,7.054,7.051,7.055,18.526.004,25.579-7.05,7.054-18.526,7.055-25.579.004-3.417-3.416-5.299-7.958-5.3-12.789,0-4.832,1.88-9.374,5.296-12.791Z"/>
  </g>
</svg>