<?xml version="1.0" encoding="UTF-8"?>
<svg id="Layer_1" xmlns="http://www.w3.org/2000/svg" width="400" height="400" version="1.1" xmlns:xlink="http://www.w3.org/1999/xlink" viewBox="0 0 400 400">
  <!-- Generator: Adobe Illustrator 29.7.1, SVG Export Plug-In . SVG Version: 2.1.1 Build 8)  -->
  <defs>
    <style>
      .st0 {
        fill: url(#radial-gradient10);
      }

      .st1 {
        fill: url(#radial-gradient11);
      }

      .st2 {
        fill: url(#radial-gradient);
      }

      .st3 {
        fill: url(#radial-gradient5);
      }

      .st4 {
        fill: url(#radial-gradient1);
      }

      .st5 {
        fill: url(#radial-gradient7);
      }

      .st6 {
        fill: url(#radial-gradient14);
      }

      .st7 {
        fill: url(#radial-gradient13);
      }

      .st8 {
        fill: url(#radial-gradient8);
      }

      .st9 {
        fill: url(#radial-gradient12);
      }

      .st10 {
        fill: url(#radial-gradient6);
      }

      .st11 {
        fill: url(#radial-gradient2);
      }

      .st12 {
        fill: url(#radial-gradient15);
      }

      .st13 {
        fill: url(#radial-gradient4);
      }

      .st14 {
        fill: url(#radial-gradient3);
      }

      .st15 {
        fill: url(#radial-gradient9);
      }

      .st16 {
        fill: #343434;
      }

      .st17 {
        fill: url(#radial-gradient16);
      }

      .st18 {
        fill: #e6e6e6;
      }
    </style>
    <radialGradient id="radial-gradient" cx="145.651" cy="349.431" fx="145.651" fy="349.431" r="100.449" gradientUnits="userSpaceOnUse">
      <stop offset=".482" stop-color="#0a4630"/>
      <stop offset="1" stop-color="#149263"/>
    </radialGradient>
    <radialGradient id="radial-gradient1" cx="113.004" cy="112.435" fx="113.004" fy="112.435" r="150.266" gradientUnits="userSpaceOnUse">
      <stop offset=".482" stop-color="#81a095"/>
      <stop offset="1" stop-color="#149263"/>
    </radialGradient>
    <radialGradient id="radial-gradient2" r="150.266" xlink:href="#radial-gradient1"/>
    <radialGradient id="radial-gradient3" r="150.266" xlink:href="#radial-gradient1"/>
    <radialGradient id="radial-gradient4" r="150.266" xlink:href="#radial-gradient1"/>
    <radialGradient id="radial-gradient5" cx="113.004" cy="112.435" fx="113.004" fy="112.435" r="150.266" xlink:href="#radial-gradient1"/>
    <radialGradient id="radial-gradient6" cx="113.004" cy="112.435" fx="113.004" fy="112.435" r="150.266" xlink:href="#radial-gradient1"/>
    <radialGradient id="radial-gradient7" cx="113.004" fx="113.004" r="150.266" xlink:href="#radial-gradient1"/>
    <radialGradient id="radial-gradient8" cx="113.004" fx="113.004" r="150.272" xlink:href="#radial-gradient1"/>
    <radialGradient id="radial-gradient9" cx="113.004" fx="113.004" r="150.266" xlink:href="#radial-gradient1"/>
    <radialGradient id="radial-gradient10" cx="113.004" fx="113.004" r="150.266" xlink:href="#radial-gradient1"/>
    <radialGradient id="radial-gradient11" cy="112.435" fy="112.435" r="150.266" xlink:href="#radial-gradient1"/>
    <radialGradient id="radial-gradient12" cx="113.004" cy="112.435" fx="113.004" fy="112.435" r="150.266" xlink:href="#radial-gradient1"/>
    <radialGradient id="radial-gradient13" cx="113.004" cy="112.435" fx="113.004" fy="112.435" r="150.266" xlink:href="#radial-gradient1"/>
    <radialGradient id="radial-gradient14" cx="113.004" cy="112.435" fx="113.004" fy="112.435" r="150.266" xlink:href="#radial-gradient1"/>
    <radialGradient id="radial-gradient15" cx="113.004" cy="112.435" fx="113.004" fy="112.435" r="150.266" xlink:href="#radial-gradient1"/>
    <radialGradient id="radial-gradient16" cx="113.004" cy="112.435" fx="113.004" fy="112.435" r="150.266" xlink:href="#radial-gradient1"/>
  </defs>
  <path class="st18" d="M76.626,252.521h-21.91l-1.988-6.079h-7.608l-1.988,6.079h-21.861l17.642-48.226h20.141l17.573,48.226h0ZM60.517,244.521h4.68l-11.743-32.226h-3.398l8.011,24.658h-18.283l8.011-24.658h-3.289l-11.789,32.226h4.615l1.988-6.079h19.209s1.988,6.079,1.988,6.079Z"/>
  <path class="st18" d="M97.103,252.918c-5.912,0-10.75-1.72-14.378-5.112-3.707-3.461-5.586-8.401-5.586-14.683v-4h17.783v-24.828h20.556v29.965c0,5.899-1.673,10.537-4.972,13.786-3.281,3.232-7.791,4.872-13.403,4.872h0ZM85.547,237.123c.469,2.029,1.344,3.628,2.639,4.837,2.129,1.991,5.046,2.958,8.917,2.958,3.485,0,6.033-.841,7.789-2.571,1.716-1.689,2.585-4.41,2.585-8.087v-21.965h-4.556v21.965c0,2.209-.514,3.891-1.572,5.141-1.179,1.391-2.888,2.154-4.814,2.154-2.12,0-3.996-.887-5.283-2.496-.447-.558-.803-1.2-1.069-1.936h-4.636Z"/>
  <path class="st18" d="M132.158,252.918c-3.849,0-7.389-.818-10.522-2.432h0c-3.248-1.671-5.829-4.106-7.67-7.24-1.817-3.09-2.739-6.707-2.739-10.748s.922-7.657,2.739-10.748c1.84-3.131,4.42-5.567,7.668-7.239,3.135-1.614,6.676-2.433,10.523-2.433s7.388.818,10.523,2.433c3.248,1.673,5.827,4.107,7.668,7.239,1.818,3.093,2.739,6.709,2.739,10.748s-.921,7.656-2.739,10.749c-1.842,3.133-4.422,5.568-7.669,7.239-3.134,1.613-6.675,2.432-10.523,2.432h.002ZM132.158,220.078c-2.598,0-4.842.506-6.862,1.546-1.907.981-3.357,2.349-4.433,4.18-1.101,1.873-1.636,4.062-1.636,6.694s.535,4.822,1.636,6.694c1.077,1.833,2.527,3.2,4.432,4.181h0c2.019,1.04,4.263,1.545,6.862,1.545s4.843-.505,6.862-1.545c1.906-.98,3.355-2.348,4.433-4.181,1.101-1.872,1.636-4.062,1.636-6.694s-.535-4.821-1.636-6.693c-1.077-1.832-2.527-3.199-4.434-4.182-2.02-1.039-4.264-1.545-6.861-1.545h0ZM132.158,242.01c-2.414,0-4.507-.978-6.053-2.828-1.389-1.659-2.095-3.908-2.095-6.684,0-2.79.725-5.052,2.155-6.721,1.565-1.826,3.637-2.79,5.993-2.79s4.427.964,5.991,2.788c1.431,1.671,2.156,3.933,2.156,6.723s-.726,5.054-2.156,6.723c-1.563,1.824-3.635,2.789-5.991,2.789h0ZM132.162,231.207c-.075.235-.151.637-.151,1.291,0,.671.077,1.083.144,1.314.068-.219.151-.627.151-1.314,0-.664-.078-1.067-.144-1.291Z"/>
  <path class="st18" d="M174.485,252.918c-1.725,0-3.333-.234-4.806-.698v.301h-20.613v-50.044h20.613v10.3c1.474-.464,3.082-.698,4.806-.698,3.275,0,6.284.877,8.943,2.607,2.635,1.716,4.716,4.187,6.188,7.345,1.399,3.005,2.107,6.526,2.107,10.468s-.709,7.464-2.106,10.467c-1.472,3.159-3.554,5.631-6.188,7.346-2.66,1.73-5.668,2.607-8.943,2.607h0ZM169.201,242.249c.442.822,1.044,1.431,1.895,1.915.878.5,2.018.754,3.389.754,1.724,0,3.222-.43,4.58-1.312,1.379-.897,2.459-2.212,3.3-4.018.901-1.937,1.359-4.322,1.359-7.09s-.458-5.152-1.359-7.091c-.841-1.804-1.921-3.118-3.301-4.018-1.356-.882-2.854-1.312-4.578-1.312-1.37,0-2.511.254-3.391.755-.837.478-1.457,1.104-1.894,1.915l-7.521-1.897v-10.374h-4.613v34.044h4.613v-.375l7.522-1.896h-.001ZM170.281,241.896c-2.488,0-4.666-.938-6.297-2.713-1.566-1.699-2.362-3.95-2.362-6.685s.795-4.981,2.364-6.686c1.632-1.773,3.809-2.712,6.295-2.712s4.66.938,6.293,2.71l.004.004c1.567,1.705,2.361,3.954,2.361,6.684s-.795,4.981-2.363,6.686c-1.634,1.774-3.811,2.712-6.296,2.712h.001ZM170.281,231.101c-.29,0-.332.046-.408.129-.116.126-.251.533-.251,1.269,0,.787.156,1.167.249,1.267.079.086.12.131.411.131s.33-.043.409-.129c.115-.125.25-.532.25-1.269s-.136-1.144-.252-1.27c-.078-.085-.122-.128-.407-.128h0Z"/>
  <path class="st18" d="M222.438,252.521h-25.078v-48.226h24.511c4.964,0,9.026,1.172,12.074,3.482,2.33,1.768,5.106,5.105,5.106,10.972,0,3.235-.898,6.05-2.669,8.366-.137.178-.276.352-.42.521.413.412.8.854,1.16,1.326h0c1.883,2.468,2.837,5.339,2.837,8.535,0,4.694-1.714,8.583-4.956,11.245-3.052,2.506-7.279,3.777-12.566,3.777v.002ZM205.359,244.521h17.078c3.386,0,5.906-.659,7.489-1.96.873-.717,2.033-2.021,2.033-5.062,0-1.441-.38-2.61-1.195-3.68h0c-.783-1.025-1.859-1.67-3.387-2.027l-.092-7.767c1.181-.307,2.052-.868,2.74-1.769.689-.901,1.024-2.049,1.024-3.507,0-2.771-1.037-3.912-1.94-4.598-1.624-1.231-4.061-1.856-7.24-1.856h-16.511v32.226h0ZM219.711,242.407h-9.738v-13.682h9.738c4.466,0,7.352,2.707,7.352,6.897,0,2.815-1.27,4.415-2.334,5.262l-.006.005c-1.271,1.007-2.957,1.518-5.012,1.518h0ZM218.858,227.976h-8.886v-13.682h8.886c2.115,0,3.845.565,5.139,1.681,1.012.872,2.214,2.483,2.214,5.217s-1.236,4.326-2.274,5.185c-1.282,1.062-2.991,1.6-5.078,1.6h-.001Z"/>
  <path class="st18" d="M255.447,252.918c-3.849,0-7.389-.818-10.523-2.432h0c-3.247-1.67-5.827-4.105-7.669-7.239-1.817-3.093-2.739-6.709-2.739-10.749s.922-7.655,2.739-10.748c1.841-3.132,4.421-5.567,7.668-7.239,3.136-1.614,6.677-2.433,10.524-2.433s7.388.818,10.523,2.433c3.248,1.673,5.828,4.108,7.668,7.239,1.817,3.093,2.739,6.709,2.739,10.748s-.922,7.656-2.739,10.749c-1.842,3.133-4.422,5.568-7.669,7.239-3.134,1.613-6.675,2.432-10.522,2.432h0ZM255.447,220.078c-2.598,0-4.842.506-6.862,1.546-1.906.981-3.356,2.349-4.434,4.181-1.101,1.872-1.636,4.062-1.636,6.693s.535,4.822,1.636,6.694c1.077,1.833,2.527,3.2,4.433,4.181h0c2.019,1.04,4.264,1.545,6.862,1.545s4.843-.505,6.861-1.545c1.906-.98,3.356-2.348,4.434-4.181,1.101-1.872,1.636-4.062,1.636-6.694s-.535-4.821-1.636-6.693c-1.076-1.831-2.526-3.199-4.434-4.182-2.021-1.039-4.265-1.545-6.861-1.545h0ZM255.447,242.01c-2.413,0-4.506-.978-6.053-2.827-1.39-1.661-2.095-3.91-2.095-6.685,0-2.79.725-5.051,2.153-6.72,1.567-1.827,3.639-2.791,5.994-2.791s4.428.965,5.991,2.789c1.431,1.669,2.156,3.931,2.156,6.722s-.726,5.055-2.157,6.723c-1.562,1.825-3.634,2.789-5.99,2.789h.001ZM255.45,231.207c-.075.234-.15.637-.15,1.291,0,.671.077,1.083.144,1.314.068-.219.151-.627.151-1.314,0-.664-.078-1.067-.145-1.291Z"/>
  <path class="st18" d="M287.889,252.918c-3.276,0-6.285-.877-8.943-2.607-2.636-1.715-4.718-4.187-6.188-7.346-1.397-3.001-2.106-6.522-2.106-10.467s.709-7.465,2.106-10.467h0c1.472-3.158,3.553-5.63,6.188-7.345,2.659-1.731,5.668-2.608,8.944-2.608,1.742,0,3.369.239,4.863.713v-.314h20.556v40.044h-20.556v-.315c-1.494.474-3.12.713-4.863.713h-.001ZM280.009,225.408h0c-.901,1.937-1.358,4.321-1.358,7.09s.457,5.154,1.358,7.09c.841,1.806,1.92,3.119,3.3,4.018,1.357.883,2.855,1.312,4.58,1.312,1.378,0,2.534-.257,3.437-.765.86-.484,1.466-1.09,1.905-1.904l7.521,1.896v.375h4.556v-24.044h-4.556v.374l-7.521,1.897c-.434-.805-1.057-1.428-1.906-1.906-.901-.506-2.059-.764-3.436-.764-1.725,0-3.223.43-4.58,1.312-1.379.898-2.458,2.212-3.3,4.018h0ZM292.093,241.896c-2.487,0-4.665-.938-6.297-2.712-1.567-1.703-2.362-3.952-2.362-6.686s.795-4.979,2.362-6.685c1.635-1.775,3.812-2.713,6.297-2.713s4.66.938,6.294,2.71l.005.005c1.566,1.705,2.36,3.954,2.36,6.683s-.795,4.98-2.362,6.685c-1.634,1.775-3.811,2.713-6.297,2.713ZM292.093,231.101c-.29,0-.332.046-.409.13-.115.124-.25.532-.25,1.268s.135,1.144.25,1.269c.076.084.118.129.409.129s.331-.043.41-.129c.113-.124.249-.532.249-1.269,0-.732-.135-1.141-.251-1.27-.079-.085-.122-.128-.408-.128Z"/>
  <path class="st18" d="M331.603,252.521h-20.613v-40.044h20.613v1.29c2.082-1.008,4.266-1.518,6.511-1.518h4v21.465h-7.58c-1.77,0-2.532.286-2.773.405-.054.146-.157.524-.157,1.276v17.125h0ZM318.989,244.521h4.613v-9.125c0-.077,0-.153.002-.229l-.002.003v-14.692h-4.613v24.044h0ZM331.792,234.044h0ZM334.113,221.518c-1.261.809-2.318,1.841-3.224,3.147l-1.168,1.683c1.266-.393,2.723-.601,4.392-.63v-4.2Z"/>
  <path class="st18" d="M353.056,252.918c-3.276,0-6.285-.877-8.943-2.607-2.636-1.715-4.718-4.187-6.188-7.346-1.397-3.001-2.106-6.522-2.106-10.467s.709-7.465,2.106-10.467h0c1.472-3.158,3.553-5.63,6.188-7.345,2.659-1.731,5.668-2.608,8.944-2.608,1.724,0,3.331.234,4.806.698v-10.3h20.613v50.044h-20.613v-.301c-1.474.464-3.081.698-4.806.698h-.001ZM345.176,225.408h0c-.901,1.937-1.358,4.321-1.358,7.09s.457,5.154,1.358,7.09c.841,1.806,1.92,3.119,3.3,4.018,1.357.883,2.855,1.312,4.58,1.312,1.37,0,2.511-.254,3.39-.754.838-.479,1.458-1.104,1.894-1.914l7.522,1.896v.375h4.613v-34.044h-4.613v10.374l-7.522,1.896c-.436-.811-1.056-1.438-1.896-1.916-.877-.499-2.019-.753-3.388-.753-1.725,0-3.223.43-4.58,1.312-1.379.898-2.458,2.212-3.3,4.018h0ZM357.26,241.896c-2.487,0-4.665-.938-6.297-2.712-1.567-1.703-2.362-3.952-2.362-6.686s.795-4.979,2.362-6.685c1.635-1.775,3.812-2.713,6.297-2.713s4.66.938,6.294,2.71l.005.005c1.566,1.705,2.36,3.954,2.36,6.683s-.795,4.98-2.362,6.685c-1.634,1.775-3.811,2.713-6.297,2.713ZM357.26,231.101c-.29,0-.332.046-.409.13-.115.124-.25.532-.25,1.268s.135,1.144.25,1.269c.076.084.118.129.409.129s.331-.043.41-.129c.113-.124.249-.532.249-1.269s-.136-1.143-.252-1.27c-.078-.085-.122-.128-.407-.128h0Z"/>
  <path class="st18" d="M142.214,320.983c-4.745,0-8.972-1.05-12.564-3.119-3.652-2.102-6.498-5.087-8.458-8.87-1.899-3.663-2.863-7.856-2.863-12.464s.963-8.801,2.863-12.466h0c1.96-3.781,4.806-6.766,8.458-8.869,3.594-2.07,7.821-3.119,12.564-3.119,4.067,0,7.79.79,11.064,2.348,3.346,1.593,6.115,3.884,8.229,6.81,2.07,2.866,3.46,6.228,4.132,9.991l.84,4.703h-20.641l-1.069-2.336c-.296-.646-.663-1.099-1.156-1.426-.456-.301-.974-.442-1.627-.442-1.016,0-1.466.318-1.864.833-.671.866-1.01,2.203-1.01,3.974s.339,3.106,1.009,3.972c.399.516.849.834,1.865.834.653,0,1.171-.142,1.63-.445.49-.324.857-.776,1.152-1.422l1.068-2.337h20.642l-.84,4.703c-.672,3.764-2.062,7.125-4.132,9.99-2.114,2.927-4.883,5.218-8.229,6.811-3.275,1.558-6.998,2.348-11.065,2.348l.002-.002ZM142.214,280.076c-3.324,0-6.208.69-8.571,2.052-2.337,1.346-4.086,3.184-5.348,5.618h0c-1.305,2.517-1.966,5.472-1.966,8.784s.661,6.268,1.965,8.782c1.262,2.437,3.011,4.274,5.348,5.619,2.363,1.361,5.247,2.052,8.572,2.052,2.869,0,5.435-.529,7.628-1.572,2.148-1.022,3.843-2.419,5.18-4.271.46-.636.866-1.304,1.221-2.009h-5.599c-.736.955-1.611,1.769-2.616,2.434-1.779,1.175-3.812,1.771-6.041,1.771-3.367,0-6.199-1.362-8.192-3.938-1.779-2.299-2.682-5.282-2.682-8.867s.903-6.569,2.683-8.869c1.992-2.575,4.825-3.938,8.191-3.938,2.229,0,4.262.596,6.04,1.77,1.006.666,1.881,1.48,2.617,2.435h5.599c-.354-.705-.761-1.373-1.221-2.01-1.337-1.851-3.032-3.247-5.181-4.27-2.192-1.043-4.759-1.572-7.627-1.572h0Z"/>
  <path class="st18" d="M182.86,320.699h-20.613v-40.044h20.613v1.291c2.082-1.009,4.266-1.519,6.511-1.519h4v21.466h-7.58c-1.772,0-2.534.286-2.774.405-.054.146-.157.524-.157,1.276v17.124h0ZM170.247,312.699h4.613v-9.124c0-.077,0-.153.002-.229l-.002.003v-14.693h-4.613v24.044h0ZM183.05,302.224h0ZM185.371,289.697c-1.26.808-2.317,1.839-3.224,3.147l-1.167,1.682c1.265-.392,2.722-.6,4.391-.629v-4.2Z"/>
  <path class="st18" d="M207.438,321.098c-3.832,0-7.325-.828-10.38-2.462-3.157-1.686-5.648-4.139-7.404-7.291-1.711-3.069-2.579-6.659-2.579-10.667s.868-7.597,2.58-10.669c1.756-3.15,4.247-5.604,7.404-7.29,3.057-1.633,6.549-2.461,10.38-2.461s7.308.814,10.357,2.421c3.152,1.66,5.644,4.067,7.405,7.152,1.726,3.026,2.6,6.579,2.6,10.562,0,.259-.004.517-.013.772h.209l-.321,1.609c-.024.229-.053.457-.085.682l-.489,3.437h-.274c-.645,2.533-1.81,4.85-3.47,6.898-1.835,2.264-4.161,4.067-6.916,5.363-2.741,1.289-5.771,1.942-9.003,1.942v.002ZM207.438,288.258c-2.537,0-4.699.496-6.61,1.517-1.806.965-3.176,2.315-4.186,4.129-1.041,1.867-1.568,4.146-1.568,6.774s.527,4.907,1.567,6.773c1.011,1.813,2.38,3.164,4.186,4.129,1.911,1.021,4.072,1.518,6.61,1.518,2.075,0,3.907-.387,5.599-1.183,1.502-.706,2.735-1.608,3.755-2.749h-5.066c-1.297,1.212-2.993,1.875-4.912,1.875-3.345,0-7.061-2.069-7.457-7.875l-.122-1.784h-.479l.344-1.968-.035-.521h.126l.385-2.201c.718-4.101,3.657-6.549,7.861-6.549,1.924,0,3.674.59,5.063,1.707,1.623,1.307,2.516,3.271,2.516,5.531v1.512h4.724c-.162-1.954-.653-3.633-1.488-5.098-1.008-1.765-2.377-3.086-4.186-4.039-1.915-1.009-4.083-1.499-6.629-1.499h.002ZM207.525,297.807h0Z"/>
  <path class="st18" d="M244.392,320.699h-20.613v-50.044h20.613v50.044ZM231.778,312.699h4.613v-34.044h-4.613v34.044Z"/>
  <path class="st18" d="M257.605,321.098c-3.275,0-6.284-.878-8.943-2.608-2.637-1.717-4.719-4.188-6.188-7.347-1.397-2.998-2.106-6.52-2.106-10.465s.709-7.465,2.106-10.466h0c1.471-3.159,3.553-5.631,6.189-7.347,2.657-1.73,5.666-2.607,8.942-2.607,1.743,0,3.37.239,4.863.713v-.315h20.557v40.044h-20.557v-.314c-1.494.474-3.121.713-4.863.713h0ZM257.605,288.258c-1.725,0-3.223.429-4.578,1.312-1.381.898-2.461,2.212-3.3,4.017v.002c-.903,1.936-1.36,4.32-1.36,7.089s.457,5.153,1.358,7.087c.841,1.808,1.92,3.121,3.301,4.02,1.357.884,2.855,1.313,4.579,1.313,1.377,0,2.533-.258,3.437-.766.85-.478,1.473-1.1,1.904-1.903l7.522,1.896v.375h4.557v-24.044h-4.557v.375l-7.522,1.896c-.432-.803-1.055-1.425-1.905-1.904-.901-.507-2.058-.764-3.436-.764h0ZM261.81,310.075c-2.486,0-4.663-.938-6.296-2.713-1.566-1.7-2.362-3.95-2.362-6.685s.795-4.983,2.364-6.687c1.632-1.773,3.809-2.711,6.294-2.711s4.66.937,6.294,2.709l.003.003c1.567,1.705,2.362,3.954,2.362,6.686s-.795,4.981-2.363,6.686c-1.634,1.774-3.811,2.712-6.296,2.712ZM261.81,299.28c-.29,0-.329.043-.408.129-.115.125-.25.532-.25,1.269,0,.787.156,1.166.248,1.266.082.089.121.132.41.132s.33-.044.41-.13c.114-.125.249-.532.249-1.268s-.135-1.144-.251-1.27c-.078-.085-.12-.128-.408-.128Z"/>
  <path class="st18" d="M308.649,320.699h-8.772c-10.919,0-17.182-6.241-17.182-17.124v-4.409h-3.978v-18.511h3.978v-7.727h20.613v7.727h5.227v18.511h-5.227v2.795h5.341v18.738h0ZM286.718,291.166h3.978v12.409c0,6.565,2.574,9.124,9.182,9.124h.772v-2.791c-1.439-.16-2.631-.682-3.554-1.556-.811-.765-1.787-2.183-1.787-4.55v-12.637h5.227v-2.511h-5.227v-7.727h-4.613v7.727h-3.978v2.511h0Z"/>
  <path class="st18" d="M324.137,321.098c-3.832,0-7.325-.828-10.38-2.462-3.156-1.686-5.647-4.139-7.404-7.29-1.711-3.069-2.579-6.659-2.579-10.668s.868-7.598,2.579-10.669c1.757-3.15,4.248-5.604,7.404-7.29,3.057-1.633,6.549-2.461,10.38-2.461s7.308.814,10.357,2.421c3.152,1.66,5.644,4.067,7.405,7.152,1.726,3.026,2.6,6.579,2.6,10.562,0,.259-.004.517-.013.772h.209l-.321,1.609c-.024.229-.053.457-.085.682l-.489,3.437h-.274c-.645,2.533-1.81,4.85-3.47,6.898-1.835,2.264-4.161,4.067-6.916,5.363-2.741,1.289-5.771,1.942-9.003,1.942v.002ZM324.137,288.258c-2.537,0-4.699.496-6.609,1.517-1.807.965-3.176,2.316-4.187,4.129-1.04,1.866-1.567,4.146-1.567,6.774s.527,4.908,1.567,6.773c1.011,1.813,2.38,3.164,4.187,4.129,1.91,1.021,4.071,1.518,6.609,1.518,2.075,0,3.907-.387,5.599-1.183,1.502-.706,2.735-1.608,3.755-2.749h-5.066c-1.297,1.212-2.993,1.875-4.912,1.875-3.345,0-7.061-2.069-7.457-7.875l-.121-1.784h-.479l.345-1.968-.036-.521h.127l.385-2.201c.718-4.101,3.657-6.549,7.861-6.549,1.924,0,3.674.59,5.063,1.707,1.623,1.307,2.516,3.271,2.516,5.531v1.512h4.724c-.162-1.954-.653-3.633-1.488-5.098-1.008-1.765-2.377-3.086-4.186-4.039-1.915-1.009-4.083-1.499-6.629-1.499h0ZM324.224,297.807h0Z"/>
  <path class="st18" d="M102.026,332.486l-27.316-5.587,1.956-9.565-27.219-5.565,4.344-21.243,35.899-33.955,26.741,5.467-7.433,36.35,6.261,1.28-5.017,24.534-6.261-1.28-1.956,9.565h0ZM84.15,320.665l11.641,2.38,1.956-9.565,6.261,1.28,1.812-8.858-6.261-1.28,7.433-36.348-14.826-3.031-31.042,29.359-2.236,10.933,27.219,5.565-1.956,9.565h0ZM89.482,302.561l-20.56-4.203,26.983-27.206s-6.423,31.409-6.423,31.409Z"/>
  <g>
    <path class="st16" d="M55.628,242.441h-13.409l-1.988,6.079h-13.238l14.715-40.226h14.545l14.658,40.226h-13.295l-1.988-6.079ZM52.56,232.953l-3.636-11.193-3.636,11.193h7.272Z"/>
    <path class="st16" d="M111.478,208.295v25.965c0,4.811-1.26,8.456-3.778,10.937-2.519,2.481-6.051,3.722-10.596,3.722-4.886,0-8.769-1.344-11.647-4.034-2.879-2.688-4.318-6.609-4.318-11.761h12.442c0,1.629.265,2.775.795,3.438.53.663,1.25.994,2.159.994.757,0,1.344-.246,1.761-.738s.625-1.345.625-2.557v-25.965h12.557Z"/>
    <path class="st16" d="M123.465,246.93c-2.576-1.325-4.593-3.229-6.051-5.71-1.458-2.48-2.188-5.388-2.188-8.722s.729-6.24,2.188-8.721c1.458-2.48,3.475-4.384,6.051-5.71,2.576-1.326,5.473-1.989,8.693-1.989s6.117.663,8.693,1.989c2.575,1.326,4.592,3.229,6.051,5.71,1.458,2.48,2.188,5.389,2.188,8.721s-.729,6.241-2.188,8.722c-1.458,2.48-3.476,4.385-6.051,5.71-2.576,1.326-5.474,1.988-8.693,1.988s-6.117-.662-8.693-1.988ZM135.113,236.617c.795-.928,1.193-2.301,1.193-4.119s-.397-3.19-1.193-4.119c-.795-.928-1.781-1.392-2.955-1.392s-2.159.464-2.955,1.392c-.795.929-1.193,2.301-1.193,4.119s.388,3.191,1.165,4.119c.776.929,1.771,1.393,2.983,1.393,1.174,0,2.159-.464,2.955-1.393Z"/>
    <path class="st16" d="M169.116,217.356c1.496-.852,3.286-1.278,5.369-1.278,2.5,0,4.753.653,6.761,1.96,2.007,1.308,3.588,3.202,4.744,5.682,1.155,2.481,1.733,5.407,1.733,8.778s-.578,6.298-1.733,8.778c-1.156,2.481-2.737,4.375-4.744,5.682-2.008,1.307-4.261,1.96-6.761,1.96-2.083,0-3.873-.426-5.369-1.278-1.497-.853-2.642-2.017-3.437-3.494v4.375h-12.613v-42.044h12.613v14.374c.795-1.477,1.94-2.642,3.437-3.494h0ZM173.633,228.521c-.872-.946-1.989-1.421-3.352-1.421s-2.481.475-3.352,1.421c-.872.947-1.307,2.272-1.307,3.977s.435,3.031,1.307,3.978c.871.947,1.988,1.42,3.352,1.42s2.48-.473,3.352-1.42c.871-.946,1.307-2.272,1.307-3.978s-.436-3.029-1.307-3.977Z"/>
    <path class="st16" d="M233.943,231.391c1.344,1.761,2.017,3.798,2.017,6.107,0,3.522-1.165,6.241-3.494,8.153-2.329,1.913-5.673,2.869-10.028,2.869h-21.078v-40.226h20.511c4.09,0,7.31.89,9.658,2.67,2.348,1.781,3.522,4.375,3.522,7.784,0,2.349-.616,4.327-1.847,5.937s-2.869,2.681-4.914,3.211c2.424.567,4.308,1.732,5.653,3.494h0ZM213.973,223.976h4.886c1.137,0,1.979-.227,2.528-.682.549-.454.824-1.155.824-2.103,0-.984-.275-1.713-.824-2.187-.55-.474-1.392-.711-2.528-.711h-4.886v5.682h0ZM222.239,237.754c.548-.436.823-1.146.823-2.131,0-1.932-1.117-2.897-3.352-2.897h-5.738v5.682h5.738c1.136,0,1.979-.218,2.528-.653h.001Z"/>
    <path class="st16" d="M246.754,246.93c-2.576-1.325-4.593-3.229-6.051-5.71s-2.188-5.388-2.188-8.722.729-6.24,2.188-8.721,3.475-4.384,6.051-5.71,5.474-1.989,8.693-1.989,6.116.663,8.692,1.989c2.575,1.326,4.593,3.229,6.051,5.71s2.188,5.389,2.188,8.721-.729,6.241-2.188,8.722-3.476,4.385-6.051,5.71c-2.576,1.326-5.474,1.988-8.692,1.988s-6.117-.662-8.693-1.988h0ZM258.401,236.617c.796-.928,1.193-2.301,1.193-4.119s-.397-3.19-1.193-4.119c-.795-.928-1.78-1.392-2.954-1.392s-2.159.464-2.955,1.392c-.795.929-1.192,2.301-1.192,4.119s.388,3.191,1.164,4.119c.776.929,1.771,1.393,2.983,1.393,1.174,0,2.159-.464,2.954-1.393Z"/>
    <path class="st16" d="M276.383,223.72c1.155-2.479,2.736-4.374,4.744-5.682,2.008-1.307,4.262-1.96,6.762-1.96,2.082,0,3.882.427,5.397,1.278,1.515.853,2.67,2.018,3.466,3.494v-4.374h12.556v32.044h-12.556v-4.375c-.796,1.478-1.951,2.642-3.466,3.494-1.516.853-3.315,1.278-5.397,1.278-2.5,0-4.754-.653-6.762-1.96s-3.589-3.2-4.744-5.682c-1.155-2.48-1.732-5.406-1.732-8.778s.577-6.297,1.732-8.778h0ZM295.445,228.521c-.872-.946-1.989-1.421-3.353-1.421s-2.481.475-3.353,1.421c-.871.947-1.307,2.272-1.307,3.977s.436,3.031,1.307,3.978c.871.947,1.989,1.42,3.353,1.42s2.48-.473,3.353-1.42c.87-.946,1.307-2.272,1.307-3.978s-.437-3.029-1.307-3.977Z"/>
    <path class="st16" d="M332.317,217.925c1.855-1.116,3.787-1.676,5.796-1.676v13.465h-3.58c-2.386,0-4.139.418-5.255,1.25-1.118.834-1.676,2.312-1.676,4.432v13.125h-12.613v-32.044h12.613v5.908c1.287-1.855,2.859-3.342,4.715-4.46h0Z"/>
    <path class="st16" d="M341.55,223.72c1.155-2.479,2.736-4.374,4.744-5.682,2.008-1.307,4.262-1.96,6.762-1.96,2.082,0,3.872.427,5.369,1.278,1.495.853,2.642,2.018,3.437,3.494v-14.374h12.613v42.044h-12.613v-4.375c-.795,1.478-1.941,2.642-3.437,3.494-1.497.853-3.287,1.278-5.369,1.278-2.5,0-4.754-.653-6.762-1.96s-3.589-3.2-4.744-5.682c-1.155-2.48-1.732-5.406-1.732-8.778s.577-6.297,1.732-8.778h0ZM360.612,228.521c-.872-.946-1.989-1.421-3.353-1.421s-2.481.475-3.353,1.421c-.871.947-1.307,2.272-1.307,3.977s.436,3.031,1.307,3.978c.871.947,1.989,1.42,3.353,1.42s2.48-.473,3.353-1.42c.87-.946,1.307-2.272,1.307-3.978s-.437-3.029-1.307-3.977Z"/>
    <path class="st16" d="M124.743,285.905c1.609-3.105,3.911-5.521,6.903-7.244s6.514-2.585,10.567-2.585c3.484,0,6.6.653,9.346,1.96,2.746,1.307,4.98,3.153,6.705,5.54,1.723,2.386,2.869,5.17,3.438,8.352h-13.295c-.606-1.325-1.469-2.357-2.585-3.097-1.118-.738-2.396-1.107-3.835-1.107-2.122,0-3.798.795-5.028,2.386-1.231,1.591-1.846,3.731-1.846,6.421s.615,4.829,1.846,6.42c1.23,1.591,2.907,2.386,5.028,2.386,1.439,0,2.717-.369,3.835-1.107,1.117-.738,1.979-1.771,2.585-3.097h13.295c-.568,3.182-1.714,5.966-3.438,8.352-1.724,2.387-3.958,4.233-6.705,5.54-2.747,1.307-5.862,1.96-9.346,1.96-4.053,0-7.576-.861-10.567-2.585-2.993-1.723-5.294-4.138-6.903-7.244-1.61-3.105-2.415-6.647-2.415-10.624s.804-7.519,2.415-10.625v-.002Z"/>
    <path class="st16" d="M183.575,286.104c1.855-1.117,3.787-1.677,5.795-1.677v13.466h-3.58c-2.386,0-4.139.417-5.255,1.25-1.118.833-1.676,2.311-1.676,4.432v13.124h-12.613v-32.044h12.613v5.909c1.287-1.855,2.859-3.343,4.715-4.46h.001Z"/>
    <path class="st16" d="M223.631,302.894h-20.283c.188,2.765,1.344,4.147,3.466,4.147,1.363,0,2.348-.625,2.954-1.875h13.352c-.454,2.272-1.411,4.309-2.869,6.107-1.459,1.8-3.295,3.22-5.511,4.262s-4.65,1.562-7.301,1.562c-3.183,0-6.014-.663-8.495-1.989-2.481-1.325-4.413-3.229-5.795-5.71-1.383-2.48-2.074-5.388-2.074-8.721s.691-6.24,2.074-8.722c1.382-2.48,3.314-4.384,5.795-5.71,2.481-1.325,5.312-1.988,8.495-1.988s6.013.653,8.493,1.96,4.412,3.173,5.796,5.597c1.382,2.424,2.073,5.283,2.073,8.579,0,.871-.057,1.704-.17,2.5h0ZM211.018,297.382c0-1.06-.341-1.865-1.022-2.414-.683-.549-1.534-.824-2.557-.824-2.235,0-3.543,1.079-3.921,3.238h7.5Z"/>
    <path class="st16" d="M240.392,274.655v42.044h-12.613v-42.044h12.613Z"/>
    <path class="st16" d="M246.101,291.899c1.154-2.48,2.736-4.375,4.744-5.682,2.007-1.307,4.261-1.96,6.761-1.96,2.083,0,3.882.426,5.397,1.278,1.515.853,2.671,2.017,3.466,3.494v-4.375h12.557v32.044h-12.557v-4.375c-.795,1.478-1.951,2.643-3.466,3.494-1.516.853-3.314,1.279-5.397,1.279-2.5,0-4.754-.654-6.761-1.961-2.008-1.307-3.59-3.2-4.744-5.682-1.156-2.48-1.733-5.406-1.733-8.777s.577-6.297,1.733-8.778h0ZM265.162,296.7c-.872-.946-1.988-1.42-3.353-1.42s-2.48.474-3.352,1.42c-.872.947-1.307,2.272-1.307,3.978s.435,3.03,1.307,3.977c.871.947,1.988,1.421,3.352,1.421s2.48-.474,3.353-1.421c.871-.946,1.307-2.272,1.307-3.977s-.436-3.03-1.307-3.978Z"/>
    <path class="st16" d="M304.649,305.961v10.738h-4.772c-8.788,0-13.182-4.375-13.182-13.124v-8.409h-3.978v-10.511h3.978v-7.727h12.613v7.727h5.227v10.511h-5.227v8.637c0,.758.179,1.307.54,1.647.359.341.956.511,1.789.511h3.012Z"/>
    <path class="st16" d="M340.329,302.894h-20.283c.188,2.765,1.344,4.147,3.466,4.147,1.363,0,2.348-.625,2.954-1.875h13.352c-.454,2.272-1.411,4.309-2.869,6.107-1.459,1.8-3.295,3.22-5.511,4.262s-4.65,1.562-7.301,1.562c-3.183,0-6.014-.663-8.494-1.989-2.481-1.325-4.413-3.229-5.796-5.71-1.383-2.48-2.073-5.388-2.073-8.721s.69-6.24,2.073-8.722c1.383-2.48,3.314-4.384,5.796-5.71,2.48-1.325,5.312-1.988,8.494-1.988s6.013.653,8.493,1.96,4.412,3.173,5.796,5.597c1.382,2.424,2.073,5.283,2.073,8.579,0,.871-.057,1.704-.17,2.5h0ZM327.716,297.382c0-1.06-.341-1.865-1.022-2.414-.683-.549-1.534-.824-2.557-.824-2.235,0-3.543,1.079-3.921,3.238h7.5Z"/>
  </g>
  <path class="st2" d="M54.167,308.651l3.29-16.088,33.471-31.657,20.783,4.249-7.433,36.349,6.261,1.28-3.414,16.696-6.261-1.28-1.956,9.565-19.479-3.983,1.956-9.565-27.219-5.565h0ZM89.298,283.493l-12.326,12.428,9.392,1.92,2.934-14.348h0Z"/>
  <g>
    <g>
      <rect class="st16" x="125.01" y="91.312" width="11.123" height="15.294"/>
      <rect class="st16" x="125.01" y="103.832" width="11.123" height="15.303"/>
      <path class="st16" d="M267.811,179.089h-137.622c-2.856,0-5.179-2.323-5.179-5.179v-57.548h11.123v5.664h33.465v-31.762l11.436-13.787,2.203,1.304c2.491,1.473,5.879,1.252,8.155-.55l.818-.648h68.84v-33.465h-124.917v36.938l-11.123,1.921v-45.688c0-2.856,2.323-5.179,5.179-5.179h137.622c2.856,0,5.18,2.323,5.18,5.179v137.622c0,2.856-2.323,5.179-5.18,5.179ZM264.965,173.089h2.025v-2.674c-.214,1.177-.982,2.162-2.025,2.674ZM219.429,173.089h4.241c-1.234-.605-2.085-1.875-2.085-3.339v-38.031c0-1.951,1.511-3.555,3.423-3.706-1.912-.15-3.423-1.754-3.423-3.705v-38.031c0-1.909,1.447-3.487,3.303-3.694h-6.677c1.855.207,3.303,1.785,3.303,3.694v38.031c0,1.951-1.511,3.555-3.423,3.705,1.912.15,3.423,1.755,3.423,3.706v38.031c0,1.464-.851,2.733-2.085,3.339ZM173.513,173.089h4.62c-1.233-.605-2.084-1.875-2.084-3.339v-23.352c-.158-.228-.309-.461-.451-.699v24.05c0,1.464-.851,2.733-2.084,3.339ZM131.01,173.089h1.208c-.465-.229-.876-.551-1.208-.943v.943ZM227.585,167.467h33.465v-33.465h-33.465v33.465ZM182.049,167.467h33.465v-33.465h-23.16l-.832-.688c-2.337-1.933-5.664-2.192-8.276-.645l-1.197.708v.075l-.691.833c-1.082,1.303-1.653,2.893-1.652,4.598,0,1.704.571,3.293,1.652,4.596l.691.833v23.155ZM136.133,167.467h33.465v-33.465h-28.946l-4.519-.772v34.237ZM263.627,128.013c1.689.133,3.066,1.401,3.363,3.041v-6.081c-.297,1.639-1.674,2.908-3.363,3.04ZM227.585,122.025h33.465v-33.465h-33.465v33.465ZM182.049,122.025h33.465v-33.465h-33.465v33.465ZM175.598,118.018l.451.543v-8.729h-.451v8.186ZM175.598,100.606h.451v-8.722l-.451.544v8.178ZM263.627,82.571c1.689.133,3.066,1.401,3.363,3.041v-6.081c-.297,1.639-1.674,2.908-3.363,3.04ZM133.85,37.118h129.483c1.822,0,3.343,1.318,3.657,3.052v-3.061h-135.98v1.331c.682-.808,1.702-1.321,2.84-1.321Z"/>
      <polygon class="st16" points="169.598 94.608 169.598 88.56 136.133 88.56 136.133 94.087 125.01 94.087 125.01 79.161 140.194 76.583 184.549 76.583 169.598 94.608"/>
    </g>
    <g>
      <rect class="st18" x="128.01" y="94.313" width="5.123" height="9.294"/>
      <rect class="st18" x="128.01" y="106.832" width="5.123" height="9.303"/>
      <path class="st18" d="M128.01,36.288v42.126l5.123-.885v-36.694c0-.396.321-.717.717-.717h129.484c.396,0,.717.321.717.717v38.031c0,.396-.321.717-.717.717h-70.08c-1.85,1.465-4.094,2.2-6.338,2.2-1.804,0-3.608-.474-5.208-1.42l-9.11,10.984v12.261h6.451v-17.33c0-.396.321-.717.717-.717h38.031c.396,0,.717.321.717.717v38.031c0,.396-.321.717-.717.717h-38.031c-.396,0-.717-.321-.717-.717v-17.476h-6.451v12.268l9.119,10.986c3.651-2.161,8.367-1.856,11.717.915h24.363c.396,0,.717.321.717.717v38.031c0,.396-.321.717-.717.717h-38.031c-.396,0-.717-.321-.717-.717v-24.355c-1.517-1.828-2.344-4.106-2.344-6.512,0-2.406.826-4.685,2.344-6.514v-.446l-6.451-7.772v.157c0,.396-.321.717-.717.717h-38.031c-.396,0-.717-.321-.717-.717v-4.947h-5.123v9.437l12.896,2.204h30.975c.396,0,.717.321.717.717v38.031c0,.396-.321.717-.717.717h-38.031c-.396,0-.717-.321-.717-.717v-36.804l-5.123-.876v41.84c0,1.203.976,2.179,2.179,2.179h137.622c1.203,0,2.179-.976,2.179-2.179V36.288c0-1.203-.976-2.179-2.179-2.179h-137.622c-1.203,0-2.179.976-2.179,2.179ZM264.05,169.75c0,.396-.321.717-.717.717h-38.031c-.396,0-.717-.321-.717-.717v-38.031c0-.396.321-.717.717-.717h38.031c.396,0,.717.321.717.717v38.031ZM264.05,124.308c0,.396-.321.717-.717.717h-38.031c-.396,0-.717-.321-.717-.717v-38.031c0-.396.321-.717.717-.717h38.031c.396,0,.717.321.717.717v38.031Z"/>
      <path class="st18" d="M133.133,86.277c0-.396.321-.717.717-.717h38.031c.396,0,.717.321.717.717v.016l5.565-6.71h-37.969l-12.184,2.105v9.399h5.123v-4.81Z"/>
    </g>
  </g>
  <g>
    <path class="st4" d="M133.133,119.361v4.947c0,.396.321.717.717.717h38.031c.396,0,.717-.321.717-.717v-.157l-3.976-4.79h-35.489Z"/>
    <path class="st11" d="M169.379,94.313h-36.246v9.294h39.465v-12.261l-1.977,2.384c-.306.369-.761.583-1.242.583Z"/>
    <path class="st14" d="M171.881,85.56h-38.031c-.396,0-.717.321-.717.717v4.81h35.489l3.976-4.794v-.016c0-.396-.321-.717-.717-.717Z"/>
    <path class="st13" d="M133.133,116.135h36.246c.48,0,.935.214,1.241.583l1.978,2.383v-12.268h-39.465v9.303Z"/>
    <path class="st3" d="M160.251,57.629h0c0-1.869-.728-3.625-2.05-4.946-1.321-1.321-3.078-2.048-4.946-2.048h-.001c-1.868,0-3.625.728-4.946,2.05-1.321,1.322-2.048,3.078-2.048,4.947,0,1.868.728,3.625,2.05,4.946,1.321,1.321,3.078,2.048,4.946,2.048h.001c1.868,0,3.625-.728,4.946-2.05,1.321-1.321,2.048-3.078,2.048-4.946Z"/>
    <path class="st10" d="M191.863,76.512c2.727-2.728,2.726-7.166-.002-9.893-1.321-1.321-3.077-2.048-4.945-2.048h-.001c-1.869,0-3.625.728-4.946,2.05-1.321,1.321-2.048,3.078-2.048,4.947,0,1.868.728,3.625,2.05,4.946,2.728,2.727,7.166,2.726,9.893-.002Z"/>
    <path class="st5" d="M263.333,40.118h-129.484c-.396,0-.717.321-.717.717v36.694l18.512-3.198v-6.607c-2.117-.333-4.07-1.321-5.615-2.865-1.931-1.93-2.994-4.497-2.995-7.227s1.062-5.297,2.993-7.228c1.93-1.931,4.497-2.994,7.227-2.995h.002c2.729,0,5.296,1.063,7.226,2.993,1.931,1.93,2.994,4.497,2.995,7.227,0,0,0,0,0,0,0,2.73-1.062,5.297-2.993,7.228-1.544,1.545-3.497,2.532-5.614,2.867v7.966c0,.785-.565,1.456-1.338,1.589l-13.339,2.304h37.969l1.065-1.284c-1.637-1.864-2.533-4.228-2.533-6.731,0-2.73,1.062-5.297,2.993-7.228s4.497-2.994,7.227-2.995h.002c2.73,0,5.296,1.063,7.226,2.993,3.986,3.984,3.987,10.469.002,14.455-.284.284-.583.546-.891.79h70.08c.396,0,.717-.321.717-.717v-38.031c0-.396-.321-.717-.717-.717Z"/>
    <path class="st8" d="M217.797,85.56h-38.031c-.396,0-.717.321-.717.717v17.33h11.721c.334-2.116,1.321-4.067,2.865-5.611,1.93-1.931,4.497-2.994,7.227-2.995h.002c2.729,0,5.295,1.063,7.225,2.993,1.931,1.93,2.994,4.497,2.995,7.227,0,2.73-1.062,5.297-2.993,7.228-1.93,1.931-4.497,2.994-7.227,2.995h0c-5.088,0-9.319-3.737-10.094-8.611h-11.72v17.476c0,.396.321.717.717.717h38.031c.396,0,.717-.321.717-.717v-38.031c0-.396-.321-.717-.717-.717Z"/>
    <path class="st15" d="M200.863,112.217c1.868,0,3.625-.728,4.946-2.05,1.321-1.321,2.048-3.078,2.048-4.947,0-1.868-.728-3.625-2.049-4.946-1.321-1.321-3.077-2.048-4.945-2.048h-.001c-1.869,0-3.625.728-4.946,2.05-1.317,1.317-2.043,3.068-2.047,4.93,0,.004.001.009.001.013,0,.005-.001.01-.002.015.007,3.851,3.143,6.983,6.996,6.983Z"/>
    <rect class="st0" x="224.585" y="85.56" width="39.465" height="39.465" rx=".717" ry=".717"/>
    <path class="st1" d="M171.881,131.002h-30.975l12.624,2.158c.775.132,1.341.804,1.341,1.59v7.983c2.121.332,4.078,1.32,5.626,2.867,1.931,1.93,2.994,4.497,2.995,7.227s-1.062,5.297-2.993,7.228c-1.93,1.931-4.497,2.994-7.227,2.995h-.002c-2.729,0-5.296-1.063-7.226-2.993-1.931-1.93-2.994-4.497-2.995-7.227,0-2.73,1.062-5.297,2.993-7.228,1.542-1.542,3.49-2.529,5.603-2.865v-6.627l-18.512-3.164v36.804c0,.396.321.717.717.717h38.031c.396,0,.717-.321.717-.717v-38.031c0-.396-.321-.717-.717-.717Z"/>
    <path class="st9" d="M146.275,152.829c0,1.868.728,3.625,2.05,4.946,1.321,1.321,3.078,2.048,4.946,2.048h.001c1.868,0,3.625-.728,4.946-2.049s2.048-3.078,2.048-4.946c0-1.869-.728-3.625-2.05-4.946-1.321-1.321-3.078-2.048-4.946-2.048h-.001c-1.868,0-3.625.728-4.946,2.05-1.321,1.321-2.048,3.078-2.048,4.946Z"/>
    <path class="st7" d="M186.927,145.877c1.869,0,3.625-.728,4.946-2.05,2.727-2.728,2.726-7.166-.001-9.893-1.364-1.363-3.155-2.045-4.945-2.045s-3.584.682-4.947,2.047c-1.321,1.321-2.048,3.078-2.048,4.946s.728,3.625,2.05,4.946c1.321,1.321,3.078,2.048,4.946,2.048h0Z"/>
    <path class="st6" d="M217.797,131.002h-24.363c.247.204.487.42.718.651,3.986,3.985,3.987,10.469.002,14.455-1.93,1.931-4.497,2.994-7.227,2.995h-.002c-2.73,0-5.296-1.063-7.226-2.993-.23-.23-.446-.469-.651-.715v24.355c0,.396.321.717.717.717h38.031c.396,0,.717-.321.717-.717v-38.031c0-.396-.321-.717-.717-.717Z"/>
    <path class="st12" d="M179.049,132.369c.061-.074.125-.146.189-.219l-.189-.228v.446Z"/>
    <rect class="st17" x="224.585" y="131.002" width="39.465" height="39.465" rx=".717" ry=".717"/>
  </g>
  <g>
    <path class="st16" d="M154.871,142.733v-7.983c0-.786-.567-1.457-1.341-1.59l-12.624-2.158-12.896-2.204v3.273l5.123.876,18.512,3.164v6.627c-2.113.336-4.061,1.323-5.603,2.865-1.93,1.931-2.993,4.498-2.993,7.228,0,2.73,1.064,5.297,2.995,7.227,1.93,1.93,4.497,2.993,7.226,2.993h.002c2.73,0,5.297-1.064,7.227-2.995,1.93-1.931,2.993-4.497,2.993-7.228s-1.064-5.297-2.995-7.227c-1.548-1.547-3.504-2.535-5.626-2.867ZM158.218,157.774c-1.321,1.321-3.078,2.049-4.946,2.049h-.001c-1.868,0-3.624-.727-4.946-2.048-1.321-1.321-2.049-3.078-2.05-4.946s.727-3.625,2.048-4.946c1.321-1.322,3.078-2.049,4.946-2.05h.001c1.868,0,3.625.727,4.946,2.048,1.321,1.321,2.049,3.078,2.05,4.946,0,1.868-.727,3.625-2.048,4.946Z"/>
    <path class="st16" d="M208.088,97.993c-1.93-1.93-4.496-2.993-7.225-2.993h-.002c-2.73,0-5.297,1.064-7.227,2.995-1.544,1.544-2.531,3.495-2.865,5.611h-62.759v3.226h62.759c.775,4.874,5.006,8.611,10.094,8.611h0c2.73,0,5.297-1.064,7.227-2.995,1.93-1.931,2.993-4.498,2.993-7.228,0-2.73-1.064-5.297-2.995-7.227ZM205.809,110.167c-1.321,1.322-3.078,2.049-4.946,2.05-3.853,0-6.989-3.131-6.996-6.983,0-.005.002-.01.002-.015,0-.004-.001-.009-.001-.013.004-1.862.73-3.613,2.047-4.93,1.321-1.321,3.078-2.049,4.946-2.05h.001c1.868,0,3.624.727,4.945,2.048,1.321,1.321,2.049,3.078,2.049,4.946,0,1.869-.727,3.625-2.048,4.947Z"/>
    <path class="st16" d="M193.434,131.002c-3.35-2.771-8.066-3.077-11.717-.915l-9.119-10.986-1.978-2.383c-.306-.369-.761-.583-1.241-.583h-41.369v3.226h40.612l3.976,4.79,6.451,7.772.189.228c-.064.072-.127.145-.189.219-1.517,1.829-2.344,4.108-2.344,6.514,0,2.405.827,4.683,2.344,6.512.205.247.421.486.651.715,1.931,1.93,4.497,2.993,7.226,2.993h.002c2.73,0,5.297-1.064,7.227-2.995,3.984-3.986,3.984-10.47-.002-14.455-.231-.231-.471-.447-.718-.651ZM191.873,143.827c-1.321,1.322-3.077,2.049-4.946,2.05h0c-1.868,0-3.625-.727-4.946-2.048-1.322-1.321-2.049-3.077-2.05-4.946s.727-3.625,2.048-4.946c1.364-1.364,3.155-2.047,4.947-2.047s3.582.681,4.945,2.045c2.728,2.727,2.729,7.165.001,9.893Z"/>
    <path class="st16" d="M153.533,77.279c.773-.134,1.338-.804,1.338-1.589v-7.966c2.117-.334,4.069-1.322,5.614-2.867,1.93-1.931,2.993-4.498,2.993-7.228,0,0,0,0,0,0,0-2.73-1.064-5.297-2.995-7.227-1.931-1.93-4.497-2.993-7.226-2.993h-.002c-2.73,0-5.297,1.064-7.227,2.995-1.93,1.931-2.993,4.498-2.993,7.228s1.064,5.297,2.995,7.227c1.545,1.545,3.498,2.532,5.615,2.865v6.607l-18.512,3.198-5.123.885v3.273l12.184-2.105,13.339-2.304ZM148.31,62.577c-1.321-1.321-2.049-3.078-2.05-4.946,0-1.869.727-3.625,2.048-4.947,1.321-1.321,3.078-2.049,4.946-2.05h.001c1.868,0,3.625.727,4.946,2.048,1.321,1.321,2.049,3.078,2.05,4.946h0c0,1.869-.727,3.625-2.048,4.947-1.321,1.322-3.078,2.049-4.946,2.05h-.001c-1.868,0-3.624-.727-4.946-2.048Z"/>
    <path class="st16" d="M169.379,94.313c.48,0,.935-.214,1.242-.583l1.977-2.384,9.11-10.984c1.6.947,3.404,1.42,5.208,1.42,2.244,0,4.487-.735,6.338-2.2.308-.244.606-.506.891-.79,3.984-3.986,3.983-10.47-.002-14.455-1.93-1.93-4.497-2.993-7.226-2.993h-.002c-2.73,0-5.297,1.064-7.227,2.995s-2.993,4.498-2.993,7.228c0,2.503.897,4.867,2.533,6.731l-1.065,1.284-5.565,6.71-3.976,4.794h-40.611v3.226h41.369ZM181.969,66.621c1.321-1.322,3.077-2.05,4.946-2.05h.001c1.868,0,3.624.727,4.945,2.048,2.728,2.727,2.729,7.165.002,9.893-2.727,2.728-7.165,2.728-9.893.002-1.322-1.321-2.049-3.078-2.05-4.946,0-1.869.727-3.625,2.048-4.947Z"/>
  </g>
</svg>